<?xml version="1.0"?>
<!-- Generated by SVGo -->
<svg width="324.801mm" height="115.250mm"
     viewBox="0.000 0.000 324.801 115.250"
     xmlns="http://www.w3.org/2000/svg" 
     xmlns:xlink="http://www.w3.org/1999/xlink">
<polygon points="319.801,110.250 5.000,110.250 5.000,5.000 319.801,5.000" style="fill:none;stroke-width:0.050000mm;stroke:black"/>
<polygon points="7.036,106.324 6.618,106.537 6.286,106.869 6.073,107.287 5.999,107.750 6.073,108.214 6.286,108.632 6.618,108.964 7.036,109.177 7.500,109.250 7.963,109.177 8.381,108.964 8.713,108.632 8.926,108.214 9.000,107.750 8.926,107.287 8.713,106.869 8.381,106.537 7.963,106.324 7.500,106.250" style="fill:none;stroke-width:0.050000mm;stroke:black"/>
<polygon points="161.936,106.324 161.518,106.537 161.186,106.869 160.973,107.287 160.900,107.750 160.973,108.214 161.186,108.632 161.518,108.964 161.936,109.177 162.400,109.250 162.864,109.177 163.282,108.964 163.614,108.632 163.827,108.214 163.900,107.750 163.827,107.287 163.614,106.869 163.282,106.537 162.864,106.324 162.400,106.250" style="fill:none;stroke-width:0.050000mm;stroke:black"/>
<polygon points="316.837,106.324 316.419,106.537 316.087,106.869 315.874,107.287 315.801,107.750 315.874,108.214 316.087,108.632 316.419,108.964 316.837,109.177 317.301,109.250 317.764,109.177 318.182,108.964 318.514,108.632 318.727,108.214 318.801,107.750 318.727,107.287 318.514,106.869 318.182,106.537 317.764,106.324 317.301,106.250" style="fill:none;stroke-width:0.050000mm;stroke:black"/>
<polygon points="133.968,88.725 133.968,89.725 133.168,89.725 133.168,92.824 133.968,92.824 133.968,93.425 94.343,93.425 94.343,90.195 92.618,90.195 92.618,89.274 89.318,89.274 89.318,90.195 87.593,90.195 87.593,93.425 86.768,93.425 86.768,96.225 87.593,96.225 87.593,102.494 89.318,102.494 89.318,103.475 92.618,103.475 92.618,102.494 94.343,102.494 94.343,98.024 133.968,98.024 133.968,98.625 133.168,98.625 133.168,101.725 133.968,101.725 133.968,102.725 147.968,102.725 147.968,101.725 148.768,101.725 148.768,98.625 147.968,98.625 147.968,98.024 187.593,98.024 187.593,102.494 189.318,102.494 189.318,103.475 192.618,103.475 192.618,102.494 194.343,102.494 194.343,96.225 195.168,96.225 195.168,93.425 194.343,93.425 194.343,90.195 192.618,90.195 192.618,89.274 189.318,89.274 189.318,90.195 187.593,90.195 187.593,93.425 147.968,93.425 147.968,92.824 148.768,92.824 148.768,89.725 147.968,89.725 147.968,88.725" style="fill:none;stroke-width:0.050000mm;stroke:black"/>
<polygon points="298.275,88.725 298.275,89.725 297.474,89.725 297.474,92.824 298.275,92.824 298.275,98.625 297.474,98.625 297.474,101.725 298.275,101.725 298.275,102.725 312.275,102.725 312.275,101.725 313.075,101.725 313.075,98.625 312.275,98.625 312.275,92.824 313.075,92.824 313.075,89.725 312.275,89.725 312.275,88.725" style="fill:none;stroke-width:0.050000mm;stroke:black"/>
<polygon points="276.843,88.725 276.843,89.725 276.043,89.725 276.043,92.824 276.843,92.824 276.843,98.625 276.043,98.625 276.043,101.725 276.843,101.725 276.843,102.725 290.843,102.725 290.843,101.725 291.643,101.725 291.643,98.625 290.843,98.625 290.843,92.824 291.643,92.824 291.643,89.725 290.843,89.725 290.843,88.725" style="fill:none;stroke-width:0.050000mm;stroke:black"/>
<polygon points="253.031,88.725 253.031,89.725 252.231,89.725 252.231,92.824 253.031,92.824 253.031,98.625 252.231,98.625 252.231,101.725 253.031,101.725 253.031,102.725 267.031,102.725 267.031,101.725 267.831,101.725 267.831,98.625 267.031,98.625 267.031,92.824 267.831,92.824 267.831,89.725 267.031,89.725 267.031,88.725" style="fill:none;stroke-width:0.050000mm;stroke:black"/>
<polygon points="229.218,88.725 229.218,89.725 228.418,89.725 228.418,92.824 229.218,92.824 229.218,98.625 228.418,98.625 228.418,101.725 229.218,101.725 229.218,102.725 243.218,102.725 243.218,101.725 244.018,101.725 244.018,98.625 243.218,98.625 243.218,92.824 244.018,92.824 244.018,89.725 243.218,89.725 243.218,88.725" style="fill:none;stroke-width:0.050000mm;stroke:black"/>
<polygon points="205.406,88.725 205.406,89.725 204.606,89.725 204.606,92.824 205.406,92.824 205.406,98.625 204.606,98.625 204.606,101.725 205.406,101.725 205.406,102.725 219.406,102.725 219.406,101.725 220.206,101.725 220.206,98.625 219.406,98.625 219.406,92.824 220.206,92.824 220.206,89.725 219.406,89.725 219.406,88.725" style="fill:none;stroke-width:0.050000mm;stroke:black"/>
<polygon points="62.531,88.725 62.531,89.725 61.731,89.725 61.731,92.824 62.531,92.824 62.531,98.625 61.731,98.625 61.731,101.725 62.531,101.725 62.531,102.725 76.531,102.725 76.531,101.725 77.331,101.725 77.331,98.625 76.531,98.625 76.531,92.824 77.331,92.824 77.331,89.725 76.531,89.725 76.531,88.725" style="fill:none;stroke-width:0.050000mm;stroke:black"/>
<polygon points="38.718,88.725 38.718,89.725 37.918,89.725 37.918,92.824 38.718,92.824 38.718,98.625 37.918,98.625 37.918,101.725 38.718,101.725 38.718,102.725 52.718,102.725 52.718,101.725 53.518,101.725 53.518,98.625 52.718,98.625 52.718,92.824 53.518,92.824 53.518,89.725 52.718,89.725 52.718,88.725" style="fill:none;stroke-width:0.050000mm;stroke:black"/>
<polygon points="14.906,88.725 14.906,89.725 14.106,89.725 14.106,92.824 14.906,92.824 14.906,98.625 14.106,98.625 14.106,101.725 14.906,101.725 14.906,102.725 28.906,102.725 28.906,101.725 29.706,101.725 29.706,98.625 28.906,98.625 28.906,92.824 29.706,92.824 29.706,89.725 28.906,89.725 28.906,88.725" style="fill:none;stroke-width:0.050000mm;stroke:black"/>
<polygon points="298.275,69.675 298.275,70.675 297.475,70.675 297.475,73.774 298.275,73.774 298.275,79.575 297.475,79.575 297.475,82.675 298.275,82.675 298.275,83.675 312.275,83.675 312.275,82.675 313.075,82.675 313.075,79.575 312.275,79.575 312.275,73.774 313.075,73.774 313.075,70.675 312.275,70.675 312.275,69.675" style="fill:none;stroke-width:0.050000mm;stroke:black"/>
<polygon points="272.081,69.675 272.081,70.675 271.281,70.675 271.281,73.774 272.081,73.774 272.081,79.575 271.281,79.575 271.281,82.675 272.081,82.675 272.081,83.675 286.081,83.675 286.081,82.675 286.881,82.675 286.881,79.575 286.081,79.575 286.081,73.774 286.881,73.774 286.881,70.675 286.081,70.675 286.081,69.675" style="fill:none;stroke-width:0.050000mm;stroke:black"/>
<polygon points="245.887,69.675 245.887,70.675 245.087,70.675 245.087,73.774 245.887,73.774 245.887,79.575 245.087,79.575 245.087,82.675 245.887,82.675 245.887,83.675 259.887,83.675 259.887,82.675 260.687,82.675 260.687,79.575 259.887,79.575 259.887,73.774 260.687,73.774 260.687,70.675 259.887,70.675 259.887,69.675" style="fill:none;stroke-width:0.050000mm;stroke:black"/>
<polygon points="226.837,69.675 226.837,70.675 226.037,70.675 226.037,73.774 226.837,73.774 226.837,79.575 226.037,79.575 226.037,82.675 226.837,82.675 226.837,83.675 240.837,83.675 240.837,82.675 241.637,82.675 241.637,79.575 240.837,79.575 240.837,73.774 241.637,73.774 241.637,70.675 240.837,70.675 240.837,69.675" style="fill:none;stroke-width:0.050000mm;stroke:black"/>
<polygon points="207.787,69.675 207.787,70.675 206.987,70.675 206.987,73.774 207.787,73.774 207.787,79.575 206.987,79.575 206.987,82.675 207.787,82.675 207.787,83.675 221.787,83.675 221.787,82.675 222.587,82.675 222.587,79.575 221.787,79.575 221.787,73.774 222.587,73.774 222.587,70.675 221.787,70.675 221.787,69.675" style="fill:none;stroke-width:0.050000mm;stroke:black"/>
<polygon points="188.737,69.675 188.737,70.675 187.937,70.675 187.937,73.774 188.737,73.774 188.737,79.575 187.937,79.575 187.937,82.675 188.737,82.675 188.737,83.675 202.737,83.675 202.737,82.675 203.537,82.675 203.537,79.575 202.737,79.575 202.737,73.774 203.537,73.774 203.537,70.675 202.737,70.675 202.737,69.675" style="fill:none;stroke-width:0.050000mm;stroke:black"/>
<polygon points="169.687,69.675 169.687,70.675 168.887,70.675 168.887,73.774 169.687,73.774 169.687,79.575 168.887,79.575 168.887,82.675 169.687,82.675 169.687,83.675 183.687,83.675 183.687,82.675 184.487,82.675 184.487,79.575 183.687,79.575 183.687,73.774 184.487,73.774 184.487,70.675 183.687,70.675 183.687,69.675" style="fill:none;stroke-width:0.050000mm;stroke:black"/>
<polygon points="150.637,69.675 150.637,70.675 149.837,70.675 149.837,73.774 150.637,73.774 150.637,79.575 149.837,79.575 149.837,82.675 150.637,82.675 150.637,83.675 164.637,83.675 164.637,82.675 165.437,82.675 165.437,79.575 164.637,79.575 164.637,73.774 165.437,73.774 165.437,70.675 164.637,70.675 164.637,69.675" style="fill:none;stroke-width:0.050000mm;stroke:black"/>
<polygon points="131.587,69.675 131.587,70.675 130.787,70.675 130.787,73.774 131.587,73.774 131.587,79.575 130.787,79.575 130.787,82.675 131.587,82.675 131.587,83.675 145.587,83.675 145.587,82.675 146.387,82.675 146.387,79.575 145.587,79.575 145.587,73.774 146.387,73.774 146.387,70.675 145.587,70.675 145.587,69.675" style="fill:none;stroke-width:0.050000mm;stroke:black"/>
<polygon points="112.537,69.675 112.537,70.675 111.737,70.675 111.737,73.774 112.537,73.774 112.537,79.575 111.737,79.575 111.737,82.675 112.537,82.675 112.537,83.675 126.537,83.675 126.537,82.675 127.337,82.675 127.337,79.575 126.537,79.575 126.537,73.774 127.337,73.774 127.337,70.675 126.537,70.675 126.537,69.675" style="fill:none;stroke-width:0.050000mm;stroke:black"/>
<polygon points="93.487,69.675 93.487,70.675 92.687,70.675 92.687,73.774 93.487,73.774 93.487,79.575 92.687,79.575 92.687,82.675 93.487,82.675 93.487,83.675 107.487,83.675 107.487,82.675 108.287,82.675 108.287,79.575 107.487,79.575 107.487,73.774 108.287,73.774 108.287,70.675 107.487,70.675 107.487,69.675" style="fill:none;stroke-width:0.050000mm;stroke:black"/>
<polygon points="74.437,69.675 74.437,70.675 73.637,70.675 73.637,73.774 74.437,73.774 74.437,79.575 73.637,79.575 73.637,82.675 74.437,82.675 74.437,83.675 88.437,83.675 88.437,82.675 89.237,82.675 89.237,79.575 88.437,79.575 88.437,73.774 89.237,73.774 89.237,70.675 88.437,70.675 88.437,69.675" style="fill:none;stroke-width:0.050000mm;stroke:black"/>
<polygon points="55.387,69.675 55.387,70.675 54.587,70.675 54.587,73.774 55.387,73.774 55.387,79.575 54.587,79.575 54.587,82.675 55.387,82.675 55.387,83.675 69.387,83.675 69.387,82.675 70.187,82.675 70.187,79.575 69.387,79.575 69.387,73.774 70.187,73.774 70.187,70.675 69.387,70.675 69.387,69.675" style="fill:none;stroke-width:0.050000mm;stroke:black"/>
<polygon points="36.337,69.675 36.337,70.675 35.537,70.675 35.537,73.774 36.337,73.774 36.337,79.575 35.537,79.575 35.537,82.675 36.337,82.675 36.337,83.675 50.337,83.675 50.337,82.675 51.137,82.675 51.137,79.575 50.337,79.575 50.337,73.774 51.137,73.774 51.137,70.675 50.337,70.675 50.337,69.675" style="fill:none;stroke-width:0.050000mm;stroke:black"/>
<polygon points="14.906,69.675 14.906,70.675 14.106,70.675 14.106,73.774 14.906,73.774 14.906,79.575 14.106,79.575 14.106,82.675 14.906,82.675 14.906,83.675 28.906,83.675 28.906,82.675 29.706,82.675 29.706,79.575 28.906,79.575 28.906,73.774 29.706,73.774 29.706,70.675 28.906,70.675 28.906,69.675" style="fill:none;stroke-width:0.050000mm;stroke:black"/>
<polygon points="298.275,50.625 298.275,51.625 297.475,51.625 297.475,54.725 298.275,54.725 298.275,60.525 297.475,60.525 297.475,63.625 298.275,63.625 298.275,64.625 312.275,64.625 312.275,63.625 313.075,63.625 313.075,60.525 312.275,60.525 312.275,54.725 313.075,54.725 313.075,51.625 312.275,51.625 312.275,50.625" style="fill:none;stroke-width:0.050000mm;stroke:black"/>
<polygon points="255.412,50.625 255.412,51.625 254.612,51.625 254.612,54.725 255.412,54.725 255.412,60.525 254.612,60.525 254.612,63.625 255.412,63.625 255.412,64.625 269.412,64.625 269.412,63.625 270.212,63.625 270.212,60.525 269.412,60.525 269.412,54.725 270.212,54.725 270.212,51.625 269.412,51.625 269.412,50.625" style="fill:none;stroke-width:0.050000mm;stroke:black"/>
<polygon points="236.362,50.625 236.362,51.625 235.562,51.625 235.562,54.725 236.362,54.725 236.362,60.525 235.562,60.525 235.562,63.625 236.362,63.625 236.362,64.625 250.362,64.625 250.362,63.625 251.162,63.625 251.162,60.525 250.362,60.525 250.362,54.725 251.162,54.725 251.162,51.625 250.362,51.625 250.362,50.625" style="fill:none;stroke-width:0.050000mm;stroke:black"/>
<polygon points="217.312,50.625 217.312,51.625 216.512,51.625 216.512,54.725 217.312,54.725 217.312,60.525 216.512,60.525 216.512,63.625 217.312,63.625 217.312,64.625 231.312,64.625 231.312,63.625 232.112,63.625 232.112,60.525 231.312,60.525 231.312,54.725 232.112,54.725 232.112,51.625 231.312,51.625 231.312,50.625" style="fill:none;stroke-width:0.050000mm;stroke:black"/>
<polygon points="198.262,50.625 198.262,51.625 197.462,51.625 197.462,54.725 198.262,54.725 198.262,60.525 197.462,60.525 197.462,63.625 198.262,63.625 198.262,64.625 212.262,64.625 212.262,63.625 213.062,63.625 213.062,60.525 212.262,60.525 212.262,54.725 213.062,54.725 213.062,51.625 212.262,51.625 212.262,50.625" style="fill:none;stroke-width:0.050000mm;stroke:black"/>
<polygon points="179.212,50.625 179.212,51.625 178.412,51.625 178.412,54.725 179.212,54.725 179.212,60.525 178.412,60.525 178.412,63.625 179.212,63.625 179.212,64.625 193.212,64.625 193.212,63.625 194.012,63.625 194.012,60.525 193.212,60.525 193.212,54.725 194.012,54.725 194.012,51.625 193.212,51.625 193.212,50.625" style="fill:none;stroke-width:0.050000mm;stroke:black"/>
<polygon points="160.162,50.625 160.162,51.625 159.362,51.625 159.362,54.725 160.162,54.725 160.162,60.525 159.362,60.525 159.362,63.625 160.162,63.625 160.162,64.625 174.162,64.625 174.162,63.625 174.962,63.625 174.962,60.525 174.162,60.525 174.162,54.725 174.962,54.725 174.962,51.625 174.162,51.625 174.162,50.625" style="fill:none;stroke-width:0.050000mm;stroke:black"/>
<polygon points="141.112,50.625 141.112,51.625 140.312,51.625 140.312,54.725 141.112,54.725 141.112,60.525 140.312,60.525 140.312,63.625 141.112,63.625 141.112,64.625 155.112,64.625 155.112,63.625 155.912,63.625 155.912,60.525 155.112,60.525 155.112,54.725 155.912,54.725 155.912,51.625 155.112,51.625 155.112,50.625" style="fill:none;stroke-width:0.050000mm;stroke:black"/>
<polygon points="122.062,50.625 122.062,51.625 121.262,51.625 121.262,54.725 122.062,54.725 122.062,60.525 121.262,60.525 121.262,63.625 122.062,63.625 122.062,64.625 136.062,64.625 136.062,63.625 136.862,63.625 136.862,60.525 136.062,60.525 136.062,54.725 136.862,54.725 136.862,51.625 136.062,51.625 136.062,50.625" style="fill:none;stroke-width:0.050000mm;stroke:black"/>
<polygon points="103.012,50.625 103.012,51.625 102.212,51.625 102.212,54.725 103.012,54.725 103.012,60.525 102.212,60.525 102.212,63.625 103.012,63.625 103.012,64.625 117.012,64.625 117.012,63.625 117.812,63.625 117.812,60.525 117.012,60.525 117.012,54.725 117.812,54.725 117.812,51.625 117.012,51.625 117.012,50.625" style="fill:none;stroke-width:0.050000mm;stroke:black"/>
<polygon points="83.962,50.625 83.962,51.625 83.162,51.625 83.162,54.725 83.962,54.725 83.962,60.525 83.162,60.525 83.162,63.625 83.962,63.625 83.962,64.625 97.962,64.625 97.962,63.625 98.762,63.625 98.762,60.525 97.962,60.525 97.962,54.725 98.762,54.725 98.762,51.625 97.962,51.625 97.962,50.625" style="fill:none;stroke-width:0.050000mm;stroke:black"/>
<polygon points="64.912,50.625 64.912,51.625 64.111,51.625 64.111,54.725 64.912,54.725 64.912,60.525 64.111,60.525 64.111,63.625 64.912,63.625 64.912,64.625 78.912,64.625 78.912,63.625 79.712,63.625 79.712,60.525 78.912,60.525 78.912,54.725 79.712,54.725 79.712,51.625 78.912,51.625 78.912,50.625" style="fill:none;stroke-width:0.050000mm;stroke:black"/>
<polygon points="45.862,50.625 45.862,51.625 45.062,51.625 45.062,54.725 45.862,54.725 45.862,60.525 45.062,60.525 45.062,63.625 45.862,63.625 45.862,64.625 59.862,64.625 59.862,63.625 60.662,63.625 60.662,60.525 59.862,60.525 59.862,54.725 60.662,54.725 60.662,51.625 59.862,51.625 59.862,50.625" style="fill:none;stroke-width:0.050000mm;stroke:black"/>
<polygon points="19.668,50.625 19.668,51.625 18.868,51.625 18.868,54.725 19.668,54.725 19.668,60.525 18.868,60.525 18.868,63.625 19.668,63.625 19.668,64.625 33.668,64.625 33.668,63.625 34.468,63.625 34.468,60.525 33.668,60.525 33.668,54.725 34.468,54.725 34.468,51.625 33.668,51.625 33.668,50.625" style="fill:none;stroke-width:0.050000mm;stroke:black"/>
<polygon points="283.343,32.000 283.343,32.825 277.073,32.825 277.073,34.550 276.093,34.550 276.093,37.850 277.073,37.850 277.073,39.575 281.543,39.575 281.543,41.100 280.943,41.100 280.943,40.300 277.843,40.300 277.843,41.100 276.843,41.100 276.843,55.100 277.843,55.100 277.843,55.900 280.943,55.900 280.943,55.100 281.543,55.100 281.543,56.625 277.073,56.625 277.073,58.350 276.093,58.350 276.093,61.650 277.073,61.650 277.073,63.375 283.343,63.375 283.343,64.200 286.143,64.200 286.143,63.375 289.373,63.375 289.373,61.650 290.293,61.650 290.293,58.350 289.373,58.350 289.373,56.625 286.143,56.625 286.143,55.100 286.743,55.100 286.743,55.900 289.843,55.900 289.843,55.100 290.843,55.100 290.843,41.100 289.843,41.100 289.843,40.300 286.743,40.300 286.743,41.100 286.143,41.100 286.143,39.575 289.373,39.575 289.373,37.850 290.293,37.850 290.293,34.550 289.373,34.550 289.373,32.825 286.143,32.825 286.143,32.000" style="fill:none;stroke-width:0.050000mm;stroke:black"/>
<polygon points="298.275,31.575 298.275,32.575 297.475,32.575 297.475,35.675 298.275,35.675 298.275,41.475 297.475,41.475 297.475,44.575 298.275,44.575 298.275,45.575 312.275,45.575 312.275,44.575 313.075,44.575 313.075,41.475 312.275,41.475 312.275,35.675 313.075,35.675 313.075,32.575 312.275,32.575 312.275,31.575" style="fill:none;stroke-width:0.050000mm;stroke:black"/>
<polygon points="250.650,31.575 250.650,32.575 249.850,32.575 249.850,35.675 250.650,35.675 250.650,41.475 249.850,41.475 249.850,44.575 250.650,44.575 250.650,45.575 264.650,45.575 264.650,44.575 265.450,44.575 265.450,41.475 264.650,41.475 264.650,35.675 265.450,35.675 265.450,32.575 264.650,32.575 264.650,31.575" style="fill:none;stroke-width:0.050000mm;stroke:black"/>
<polygon points="231.600,31.575 231.600,32.575 230.800,32.575 230.800,35.675 231.600,35.675 231.600,41.475 230.800,41.475 230.800,44.575 231.600,44.575 231.600,45.575 245.600,45.575 245.600,44.575 246.400,44.575 246.400,41.475 245.600,41.475 245.600,35.675 246.400,35.675 246.400,32.575 245.600,32.575 245.600,31.575" style="fill:none;stroke-width:0.050000mm;stroke:black"/>
<polygon points="212.550,31.575 212.550,32.575 211.750,32.575 211.750,35.675 212.550,35.675 212.550,41.475 211.750,41.475 211.750,44.575 212.550,44.575 212.550,45.575 226.550,45.575 226.550,44.575 227.350,44.575 227.350,41.475 226.550,41.475 226.550,35.675 227.350,35.675 227.350,32.575 226.550,32.575 226.550,31.575" style="fill:none;stroke-width:0.050000mm;stroke:black"/>
<polygon points="193.500,31.575 193.500,32.575 192.700,32.575 192.700,35.675 193.500,35.675 193.500,41.475 192.700,41.475 192.700,44.575 193.500,44.575 193.500,45.575 207.500,45.575 207.500,44.575 208.300,44.575 208.300,41.475 207.500,41.475 207.500,35.675 208.300,35.675 208.300,32.575 207.500,32.575 207.500,31.575" style="fill:none;stroke-width:0.050000mm;stroke:black"/>
<polygon points="174.450,31.575 174.450,32.575 173.650,32.575 173.650,35.675 174.450,35.675 174.450,41.475 173.650,41.475 173.650,44.575 174.450,44.575 174.450,45.575 188.450,45.575 188.450,44.575 189.250,44.575 189.250,41.475 188.450,41.475 188.450,35.675 189.250,35.675 189.250,32.575 188.450,32.575 188.450,31.575" style="fill:none;stroke-width:0.050000mm;stroke:black"/>
<polygon points="155.400,31.575 155.400,32.575 154.600,32.575 154.600,35.675 155.400,35.675 155.400,41.475 154.600,41.475 154.600,44.575 155.400,44.575 155.400,45.575 169.400,45.575 169.400,44.575 170.200,44.575 170.200,41.475 169.400,41.475 169.400,35.675 170.200,35.675 170.200,32.575 169.400,32.575 169.400,31.575" style="fill:none;stroke-width:0.050000mm;stroke:black"/>
<polygon points="136.350,31.575 136.350,32.575 135.549,32.575 135.549,35.675 136.350,35.675 136.350,41.475 135.549,41.475 135.549,44.575 136.350,44.575 136.350,45.575 150.350,45.575 150.350,44.575 151.150,44.575 151.150,41.475 150.350,41.475 150.350,35.675 151.150,35.675 151.150,32.575 150.350,32.575 150.350,31.575" style="fill:none;stroke-width:0.050000mm;stroke:black"/>
<polygon points="117.300,31.575 117.300,32.575 116.500,32.575 116.500,35.675 117.300,35.675 117.300,41.475 116.500,41.475 116.500,44.575 117.300,44.575 117.300,45.575 131.300,45.575 131.300,44.575 132.100,44.575 132.100,41.475 131.300,41.475 131.300,35.675 132.100,35.675 132.100,32.575 131.300,32.575 131.300,31.575" style="fill:none;stroke-width:0.050000mm;stroke:black"/>
<polygon points="98.250,31.575 98.250,32.575 97.450,32.575 97.450,35.675 98.250,35.675 98.250,41.475 97.450,41.475 97.450,44.575 98.250,44.575 98.250,45.575 112.250,45.575 112.250,44.575 113.050,44.575 113.050,41.475 112.250,41.475 112.250,35.675 113.050,35.675 113.050,32.575 112.250,32.575 112.250,31.575" style="fill:none;stroke-width:0.050000mm;stroke:black"/>
<polygon points="79.200,31.575 79.200,32.575 78.400,32.575 78.400,35.675 79.200,35.675 79.200,41.475 78.400,41.475 78.400,44.575 79.200,44.575 79.200,45.575 93.200,45.575 93.200,44.575 94.000,44.575 94.000,41.475 93.200,41.475 93.200,35.675 94.000,35.675 94.000,32.575 93.200,32.575 93.200,31.575" style="fill:none;stroke-width:0.050000mm;stroke:black"/>
<polygon points="60.150,31.575 60.150,32.575 59.350,32.575 59.350,35.675 60.150,35.675 60.150,41.475 59.350,41.475 59.350,44.575 60.150,44.575 60.150,45.575 74.150,45.575 74.150,44.575 74.950,44.575 74.950,41.475 74.150,41.475 74.150,35.675 74.950,35.675 74.950,32.575 74.150,32.575 74.150,31.575" style="fill:none;stroke-width:0.050000mm;stroke:black"/>
<polygon points="41.100,31.575 41.100,32.575 40.300,32.575 40.300,35.675 41.100,35.675 41.100,41.475 40.300,41.475 40.300,44.575 41.100,44.575 41.100,45.575 55.100,45.575 55.100,44.575 55.900,44.575 55.900,41.475 55.100,41.475 55.100,35.675 55.900,35.675 55.900,32.575 55.100,32.575 55.100,31.575" style="fill:none;stroke-width:0.050000mm;stroke:black"/>
<polygon points="17.287,31.575 17.287,32.575 16.487,32.575 16.487,35.675 17.287,35.675 17.287,41.475 16.487,41.475 16.487,44.575 17.287,44.575 17.287,45.575 31.287,45.575 31.287,44.575 32.087,44.575 32.087,41.475 31.287,41.475 31.287,35.675 32.087,35.675 32.087,32.575 31.287,32.575 31.287,31.575" style="fill:none;stroke-width:0.050000mm;stroke:black"/>
<polygon points="269.700,12.524 269.700,13.524 268.900,13.524 268.900,16.625 269.700,16.625 269.700,17.224 268.175,17.224 268.175,13.994 266.450,13.994 266.450,13.075 263.150,13.075 263.150,13.994 261.425,13.994 261.425,17.224 260.600,17.224 260.600,20.025 261.425,20.025 261.425,26.294 263.150,26.294 263.150,27.275 266.450,27.275 266.450,26.294 268.175,26.294 268.175,21.825 269.700,21.825 269.700,22.424 268.900,22.424 268.900,25.525 269.700,25.525 269.700,26.525 283.700,26.525 283.700,25.525 284.500,25.525 284.500,22.424 283.700,22.424 283.700,21.825 285.225,21.825 285.225,26.294 286.950,26.294 286.950,27.275 290.250,27.275 290.250,26.294 291.975,26.294 291.975,20.025 292.800,20.025 292.800,17.224 291.975,17.224 291.975,13.994 290.250,13.994 290.250,13.075 286.950,13.075 286.950,13.994 285.225,13.994 285.225,17.224 283.700,17.224 283.700,16.625 284.500,16.625 284.500,13.524 283.700,13.524 283.700,12.524" style="fill:none;stroke-width:0.050000mm;stroke:black"/>
<polygon points="298.275,12.524 298.275,13.524 297.475,13.524 297.475,16.625 298.275,16.625 298.275,22.424 297.475,22.424 297.475,25.525 298.275,25.525 298.275,26.525 312.275,26.525 312.275,25.525 313.075,25.525 313.075,22.424 312.275,22.424 312.275,16.625 313.075,16.625 313.075,13.524 312.275,13.524 312.275,12.524" style="fill:none;stroke-width:0.050000mm;stroke:black"/>
<polygon points="241.125,12.524 241.125,13.524 240.325,13.524 240.325,16.625 241.125,16.625 241.125,22.424 240.325,22.424 240.325,25.525 241.125,25.525 241.125,26.525 255.125,26.525 255.125,25.525 255.925,25.525 255.925,22.424 255.125,22.424 255.125,16.625 255.925,16.625 255.925,13.524 255.125,13.524 255.125,12.524" style="fill:none;stroke-width:0.050000mm;stroke:black"/>
<polygon points="222.075,12.524 222.075,13.524 221.275,13.524 221.275,16.625 222.075,16.625 222.075,22.424 221.275,22.424 221.275,25.525 222.075,25.525 222.075,26.525 236.075,26.525 236.075,25.525 236.875,25.525 236.875,22.424 236.075,22.424 236.075,16.625 236.875,16.625 236.875,13.524 236.075,13.524 236.075,12.524" style="fill:none;stroke-width:0.050000mm;stroke:black"/>
<polygon points="203.025,12.524 203.025,13.524 202.225,13.524 202.225,16.625 203.025,16.625 203.025,22.424 202.225,22.424 202.225,25.525 203.025,25.525 203.025,26.525 217.025,26.525 217.025,25.525 217.825,25.525 217.825,22.424 217.025,22.424 217.025,16.625 217.825,16.625 217.825,13.524 217.025,13.524 217.025,12.524" style="fill:none;stroke-width:0.050000mm;stroke:black"/>
<polygon points="183.975,12.524 183.975,13.524 183.175,13.524 183.175,16.625 183.975,16.625 183.975,22.424 183.175,22.424 183.175,25.525 183.975,25.525 183.975,26.525 197.975,26.525 197.975,25.525 198.775,25.525 198.775,22.424 197.975,22.424 197.975,16.625 198.775,16.625 198.775,13.524 197.975,13.524 197.975,12.524" style="fill:none;stroke-width:0.050000mm;stroke:black"/>
<polygon points="164.925,12.524 164.925,13.524 164.125,13.524 164.125,16.625 164.925,16.625 164.925,22.424 164.125,22.424 164.125,25.525 164.925,25.525 164.925,26.525 178.925,26.525 178.925,25.525 179.725,25.525 179.725,22.424 178.925,22.424 178.925,16.625 179.725,16.625 179.725,13.524 178.925,13.524 178.925,12.524" style="fill:none;stroke-width:0.050000mm;stroke:black"/>
<polygon points="145.875,12.524 145.875,13.524 145.075,13.524 145.075,16.625 145.875,16.625 145.875,22.424 145.075,22.424 145.075,25.525 145.875,25.525 145.875,26.525 159.875,26.525 159.875,25.525 160.675,25.525 160.675,22.424 159.875,22.424 159.875,16.625 160.675,16.625 160.675,13.524 159.875,13.524 159.875,12.524" style="fill:none;stroke-width:0.050000mm;stroke:black"/>
<polygon points="126.824,12.524 126.824,13.524 126.024,13.524 126.024,16.625 126.824,16.625 126.824,22.424 126.024,22.424 126.024,25.525 126.824,25.525 126.824,26.525 140.825,26.525 140.825,25.525 141.625,25.525 141.625,22.424 140.825,22.424 140.825,16.625 141.625,16.625 141.625,13.524 140.825,13.524 140.825,12.524" style="fill:none;stroke-width:0.050000mm;stroke:black"/>
<polygon points="107.774,12.524 107.774,13.524 106.975,13.524 106.975,16.625 107.774,16.625 107.774,22.424 106.975,22.424 106.975,25.525 107.774,25.525 107.774,26.525 121.774,26.525 121.774,25.525 122.574,25.525 122.574,22.424 121.774,22.424 121.774,16.625 122.574,16.625 122.574,13.524 121.774,13.524 121.774,12.524" style="fill:none;stroke-width:0.050000mm;stroke:black"/>
<polygon points="88.725,12.524 88.725,13.524 87.925,13.524 87.925,16.625 88.725,16.625 88.725,22.424 87.925,22.424 87.925,25.525 88.725,25.525 88.725,26.525 102.725,26.525 102.725,25.525 103.524,25.525 103.524,22.424 102.725,22.424 102.725,16.625 103.524,16.625 103.524,13.524 102.725,13.524 102.725,12.524" style="fill:none;stroke-width:0.050000mm;stroke:black"/>
<polygon points="69.675,12.524 69.675,13.524 68.875,13.524 68.875,16.625 69.675,16.625 69.675,22.424 68.875,22.424 68.875,25.525 69.675,25.525 69.675,26.525 83.675,26.525 83.675,25.525 84.475,25.525 84.475,22.424 83.675,22.424 83.675,16.625 84.475,16.625 84.475,13.524 83.675,13.524 83.675,12.524" style="fill:none;stroke-width:0.050000mm;stroke:black"/>
<polygon points="50.625,12.524 50.625,13.524 49.825,13.524 49.825,16.625 50.625,16.625 50.625,22.424 49.825,22.424 49.825,25.525 50.625,25.525 50.625,26.525 64.625,26.525 64.625,25.525 65.425,25.525 65.425,22.424 64.625,22.424 64.625,16.625 65.425,16.625 65.425,13.524 64.625,13.524 64.625,12.524" style="fill:none;stroke-width:0.050000mm;stroke:black"/>
<polygon points="31.575,12.524 31.575,13.524 30.775,13.524 30.775,16.625 31.575,16.625 31.575,22.424 30.775,22.424 30.775,25.525 31.575,25.525 31.575,26.525 45.575,26.525 45.575,25.525 46.375,25.525 46.375,22.424 45.575,22.424 45.575,16.625 46.375,16.625 46.375,13.524 45.575,13.524 45.575,12.524" style="fill:none;stroke-width:0.050000mm;stroke:black"/>
<polygon points="12.524,12.524 12.524,13.524 11.724,13.524 11.724,16.625 12.524,16.625 12.524,22.424 11.724,22.424 11.724,25.525 12.524,25.525 12.524,26.525 26.525,26.525 26.525,25.525 27.325,25.525 27.325,22.424 26.525,22.424 26.525,16.625 27.325,16.625 27.325,13.524 26.525,13.524 26.525,12.524" style="fill:none;stroke-width:0.050000mm;stroke:black"/>
<polygon points="7.036,6.073 6.618,6.286 6.286,6.618 6.073,7.036 5.999,7.500 6.073,7.963 6.286,8.381 6.618,8.713 7.036,8.926 7.500,9.000 7.963,8.926 8.381,8.713 8.713,8.381 8.926,7.963 9.000,7.500 8.926,7.036 8.713,6.618 8.381,6.286 7.963,6.073 7.500,6.000" style="fill:none;stroke-width:0.050000mm;stroke:black"/>
<polygon points="316.837,6.073 316.419,6.286 316.087,6.618 315.874,7.036 315.801,7.500 315.874,7.963 316.087,8.381 316.419,8.713 316.837,8.926 317.301,9.000 317.764,8.926 318.182,8.713 318.514,8.381 318.727,7.963 318.801,7.500 318.727,7.036 318.514,6.618 318.182,6.286 317.764,6.073 317.301,6.000" style="fill:none;stroke-width:0.050000mm;stroke:black"/>
<polygon points="161.936,6.073 161.518,6.286 161.186,6.618 160.973,7.036 160.900,7.500 160.973,7.963 161.186,8.381 161.518,8.713 161.936,8.926 162.400,9.000 162.864,8.926 163.282,8.713 163.614,8.381 163.827,7.963 163.900,7.500 163.827,7.036 163.614,6.618 163.282,6.286 162.864,6.073 162.400,6.000" style="fill:none;stroke-width:0.050000mm;stroke:black"/>
</svg>
